<?xml version="1.0" standalone="no"?>
<!DOCTYPE svg PUBLIC "-//W3C//DTD SVG 1.1//EN" "http://www.w3.org/Graphics/SVG/1.1/DTD/svg11.dtd">
<svg width="55mm" height="40mm" viewBox="0 -40 55 40" xmlns="http://www.w3.org/2000/svg" version="1.1">
<title>OpenSCAD Model</title>
<path d="
M 0,-0 L 55,-0 L 55,-40 L 0,-40 z
M 2,-3.6 L 2.03074,-3.91214 L 2.12179,-4.21229 L 2.26965,-4.48891 L 2.46863,-4.73137 L 2.71109,-4.93035
 L 2.98771,-5.07821 L 3.28786,-5.16926 L 3.6,-5.2 L 3.91214,-5.16926 L 4.21229,-5.07821 L 4.48891,-4.93035
 L 4.73137,-4.73137 L 4.93035,-4.48891 L 5.07821,-4.21229 L 5.16926,-3.91214 L 5.2,-3.6 L 5.16926,-3.28786
 L 5.07821,-2.98771 L 4.93035,-2.71109 L 4.73137,-2.46863 L 4.48891,-2.26965 L 4.21229,-2.12179 L 3.91214,-2.03074
 L 3.6,-2 L 3.28786,-2.03074 L 2.98771,-2.12179 L 2.71109,-2.26965 L 2.46863,-2.46863 L 2.26965,-2.71109
 L 2.12179,-2.98771 L 2.03074,-3.28786 z
M 2,-36.4 L 2.03074,-36.7121 L 2.12179,-37.0123 L 2.26965,-37.2889 L 2.46863,-37.5314 L 2.71109,-37.7304
 L 2.98771,-37.8782 L 3.28786,-37.9693 L 3.6,-38 L 3.91214,-37.9693 L 4.21229,-37.8782 L 4.48891,-37.7304
 L 4.73137,-37.5314 L 4.93035,-37.2889 L 5.07821,-37.0123 L 5.16926,-36.7121 L 5.2,-36.4 L 5.16926,-36.0879
 L 5.07821,-35.7877 L 4.93035,-35.5111 L 4.73137,-35.2686 L 4.48891,-35.0696 L 4.21229,-34.9218 L 3.91214,-34.8307
 L 3.6,-34.8 L 3.28786,-34.8307 L 2.98771,-34.9218 L 2.71109,-35.0696 L 2.46863,-35.2686 L 2.26965,-35.5111
 L 2.12179,-35.7877 L 2.03074,-36.0879 z
M 49.8,-3.6 L 49.8307,-3.91214 L 49.9218,-4.21229 L 50.0696,-4.48891 L 50.2686,-4.73137 L 50.5111,-4.93035
 L 50.7877,-5.07821 L 51.0879,-5.16926 L 51.4,-5.2 L 51.7121,-5.16926 L 52.0123,-5.07821 L 52.2889,-4.93035
 L 52.5314,-4.73137 L 52.7304,-4.48891 L 52.8782,-4.21229 L 52.9693,-3.91214 L 53,-3.6 L 52.9693,-3.28786
 L 52.8782,-2.98771 L 52.7304,-2.71109 L 52.5314,-2.46863 L 52.2889,-2.26965 L 52.0123,-2.12179 L 51.7121,-2.03074
 L 51.4,-2 L 51.0879,-2.03074 L 50.7877,-2.12179 L 50.5111,-2.26965 L 50.2686,-2.46863 L 50.0696,-2.71109
 L 49.9218,-2.98771 L 49.8307,-3.28786 z
M 49.8,-36.4 L 49.8307,-36.7121 L 49.9218,-37.0123 L 50.0696,-37.2889 L 50.2686,-37.5314 L 50.5111,-37.7304
 L 50.7877,-37.8782 L 51.0879,-37.9693 L 51.4,-38 L 51.7121,-37.9693 L 52.0123,-37.8782 L 52.2889,-37.7304
 L 52.5314,-37.5314 L 52.7304,-37.2889 L 52.8782,-37.0123 L 52.9693,-36.7121 L 53,-36.4 L 52.9693,-36.0879
 L 52.8782,-35.7877 L 52.7304,-35.5111 L 52.5314,-35.2686 L 52.2889,-35.0696 L 52.0123,-34.9218 L 51.7121,-34.8307
 L 51.4,-34.8 L 51.0879,-34.8307 L 50.7877,-34.9218 L 50.5111,-35.0696 L 50.2686,-35.2686 L 50.0696,-35.5111
 L 49.9218,-35.7877 L 49.8307,-36.0879 z
" stroke="black" fill="lightgray" stroke-width="0.5"/>
</svg>
