<?xml version="1.0" standalone="no"?>
<!DOCTYPE svg PUBLIC "-//W3C//DTD SVG 1.1//EN" "http://www.w3.org/Graphics/SVG/1.1/DTD/svg11.dtd">
<svg width="38mm" height="30mm" viewBox="0 -30 38 30" xmlns="http://www.w3.org/2000/svg" version="1.1">
<title>OpenSCAD Model</title>
<path d="
M 0,-2 L 0.0978861,-1.38197 L 0.381966,-0.824429 L 0.824429,-0.381966 L 1.38197,-0.0978861 L 2,-0
 L 36,-0 L 36.618,-0.0978861 L 37.1756,-0.381966 L 37.618,-0.824429 L 37.9021,-1.38197 L 38,-2
 L 38,-28 L 37.9021,-28.618 L 37.618,-29.1756 L 37.1756,-29.618 L 36.618,-29.9021 L 36,-30
 L 2,-30 L 1.38197,-29.9021 L 0.824429,-29.618 L 0.381966,-29.1756 L 0.0978861,-28.618 L 0,-28
 z
M 1,-2.6 L 1.03074,-2.91214 L 1.12179,-3.21229 L 1.26965,-3.48891 L 1.46863,-3.73137 L 1.71109,-3.93035
 L 1.98771,-4.07821 L 2.28786,-4.16926 L 2.6,-4.2 L 2.91214,-4.16926 L 3.21229,-4.07821 L 3.48891,-3.93035
 L 3.73137,-3.73137 L 3.93035,-3.48891 L 4.07821,-3.21229 L 4.16926,-2.91214 L 4.2,-2.6 L 4.16926,-2.28786
 L 4.07821,-1.98771 L 3.93035,-1.71109 L 3.73137,-1.46863 L 3.48891,-1.26965 L 3.21229,-1.12179 L 2.91214,-1.03074
 L 2.6,-1 L 2.28786,-1.03074 L 1.98771,-1.12179 L 1.71109,-1.26965 L 1.46863,-1.46863 L 1.26965,-1.71109
 L 1.12179,-1.98771 L 1.03074,-2.28786 z
M 1,-27.4 L 1.03074,-27.7121 L 1.12179,-28.0123 L 1.26965,-28.2889 L 1.46863,-28.5314 L 1.71109,-28.7304
 L 1.98771,-28.8782 L 2.28786,-28.9693 L 2.6,-29 L 2.91214,-28.9693 L 3.21229,-28.8782 L 3.48891,-28.7304
 L 3.73137,-28.5314 L 3.93035,-28.2889 L 4.07821,-28.0123 L 4.16926,-27.7121 L 4.2,-27.4 L 4.16926,-27.0879
 L 4.07821,-26.7877 L 3.93035,-26.5111 L 3.73137,-26.2686 L 3.48891,-26.0696 L 3.21229,-25.9218 L 2.91214,-25.8307
 L 2.6,-25.8 L 2.28786,-25.8307 L 1.98771,-25.9218 L 1.71109,-26.0696 L 1.46863,-26.2686 L 1.26965,-26.5111
 L 1.12179,-26.7877 L 1.03074,-27.0879 z
M 33.8,-2.6 L 33.8307,-2.91214 L 33.9218,-3.21229 L 34.0696,-3.48891 L 34.2686,-3.73137 L 34.5111,-3.93035
 L 34.7877,-4.07821 L 35.0879,-4.16926 L 35.4,-4.2 L 35.7121,-4.16926 L 36.0123,-4.07821 L 36.2889,-3.93035
 L 36.5314,-3.73137 L 36.7304,-3.48891 L 36.8782,-3.21229 L 36.9693,-2.91214 L 37,-2.6 L 36.9693,-2.28786
 L 36.8782,-1.98771 L 36.7304,-1.71109 L 36.5314,-1.46863 L 36.2889,-1.26965 L 36.0123,-1.12179 L 35.7121,-1.03074
 L 35.4,-1 L 35.0879,-1.03074 L 34.7877,-1.12179 L 34.5111,-1.26965 L 34.2686,-1.46863 L 34.0696,-1.71109
 L 33.9218,-1.98771 L 33.8307,-2.28786 z
M 33.8,-27.4 L 33.8307,-27.7121 L 33.9218,-28.0123 L 34.0696,-28.2889 L 34.2686,-28.5314 L 34.5111,-28.7304
 L 34.7877,-28.8782 L 35.0879,-28.9693 L 35.4,-29 L 35.7121,-28.9693 L 36.0123,-28.8782 L 36.2889,-28.7304
 L 36.5314,-28.5314 L 36.7304,-28.2889 L 36.8782,-28.0123 L 36.9693,-27.7121 L 37,-27.4 L 36.9693,-27.0879
 L 36.8782,-26.7877 L 36.7304,-26.5111 L 36.5314,-26.2686 L 36.2889,-26.0696 L 36.0123,-25.9218 L 35.7121,-25.8307
 L 35.4,-25.8 L 35.0879,-25.8307 L 34.7877,-25.9218 L 34.5111,-26.0696 L 34.2686,-26.2686 L 34.0696,-26.5111
 L 33.9218,-26.7877 L 33.8307,-27.0879 z
" stroke="black" fill="lightgray" stroke-width="0.5"/>
</svg>
