<?xml version="1.0" encoding="UTF-8" standalone="no"?>
<svg
   xmlns:dc="http://purl.org/dc/elements/1.1/"
   xmlns:cc="http://creativecommons.org/ns#"
   xmlns:rdf="http://www.w3.org/1999/02/22-rdf-syntax-ns#"
   xmlns:svg="http://www.w3.org/2000/svg"
   xmlns="http://www.w3.org/2000/svg"
   xmlns:sodipodi="http://sodipodi.sourceforge.net/DTD/sodipodi-0.dtd"
   xmlns:inkscape="http://www.inkscape.org/namespaces/inkscape"
   version="1.1"
   id="svg833"
   xml:space="preserve"
   width="944.88135"
   height="1889.76"
   viewBox="0 0 944.88135 1889.76"
   sodipodi:docname="case.svg"
   inkscape:version="1.0.1 (c497b03c, 2020-09-10)"><metadata
     id="metadata839"><rdf:RDF><cc:Work
         rdf:about=""><dc:format>image/svg+xml</dc:format><dc:type
           rdf:resource="http://purl.org/dc/dcmitype/StillImage" /><dc:title /></cc:Work></rdf:RDF></metadata><defs
     id="defs837"><clipPath
       clipPathUnits="userSpaceOnUse"
       id="clipPath849"><path
         d="M 0,1417.323 H 708.661 V 0 H 0 Z"
         id="path847" /></clipPath></defs><sodipodi:namedview
     pagecolor="#ffffff"
     bordercolor="#666666"
     borderopacity="1"
     objecttolerance="10"
     gridtolerance="10"
     guidetolerance="10"
     inkscape:pageopacity="0"
     inkscape:pageshadow="2"
     inkscape:window-width="1568"
     inkscape:window-height="973"
     id="namedview835"
     showgrid="false"
     inkscape:zoom="0.9561995"
     inkscape:cx="506.22028"
     inkscape:cy="328.13649"
     inkscape:window-x="0"
     inkscape:window-y="23"
     inkscape:window-maximized="0"
     inkscape:current-layer="g845"
     inkscape:document-rotation="0" /><g
     id="g841"
     inkscape:groupmode="layer"
     inkscape:label="case"
     transform="matrix(1.3333333,0,0,-1.3333333,0,1889.76)"><g
       id="g843"><g
         id="g845"
         clip-path="url(#clipPath849)"><g
           id="g942"><g
             id="g851"
             transform="translate(168.6636,1159.3746)"><path
               d="M 0,0 C 0,2.348 1.903,4.252 4.252,4.252 6.6,4.252 8.504,2.348 8.504,0 8.504,-2.348 6.6,-4.252 4.252,-4.252 1.903,-4.252 0,-2.348 0,0 Z"
               style="fill:none;stroke:#ed1c24;stroke-width:0.1;stroke-linecap:butt;stroke-linejoin:miter;stroke-miterlimit:10;stroke-dasharray:none;stroke-opacity:1"
               id="path853" /></g><g
             id="g855"
             transform="translate(168.6636,1391.8151)"><path
               d="M 0,0 C 0,2.348 1.903,4.252 4.252,4.252 6.6,4.252 8.504,2.348 8.504,0 8.504,-2.348 6.6,-4.252 4.252,-4.252 1.903,-4.252 0,-2.348 0,0 Z"
               style="fill:none;stroke:#ed1c24;stroke-width:0.1;stroke-linecap:butt;stroke-linejoin:miter;stroke-miterlimit:10;stroke-dasharray:none;stroke-opacity:1"
               id="path857" /></g><g
             id="g859"
             transform="translate(24.0967,1391.8151)"><path
               d="M 0,0 C 0,2.348 1.904,4.252 4.252,4.252 6.601,4.252 8.504,2.348 8.504,0 8.504,-2.348 6.601,-4.252 4.252,-4.252 1.904,-4.252 0,-2.348 0,0 Z"
               style="fill:none;stroke:#ed1c24;stroke-width:0.1;stroke-linecap:butt;stroke-linejoin:miter;stroke-miterlimit:10;stroke-dasharray:none;stroke-opacity:1"
               id="path861" /></g><g
             id="g863"
             transform="translate(24.0967,1159.3746)"><path
               d="M 0,0 C 0,2.348 1.904,4.252 4.252,4.252 6.601,4.252 8.504,2.348 8.504,0 8.504,-2.348 6.601,-4.252 4.252,-4.252 1.904,-4.252 0,-2.348 0,0 Z"
               style="fill:none;stroke:#ed1c24;stroke-width:0.1;stroke-linecap:butt;stroke-linejoin:miter;stroke-miterlimit:10;stroke-dasharray:none;stroke-opacity:1"
               id="path865" /></g><g
             id="g867"
             transform="translate(172.9155,1148.0363)"><path
               d="M 0,0 C 6.262,0 11.338,5.076 11.338,11.338"
               style="fill:none;stroke:#ed1c24;stroke-width:0.1;stroke-linecap:round;stroke-linejoin:round;stroke-miterlimit:10;stroke-dasharray:none;stroke-opacity:1"
               id="path869" /></g><g
             id="g871"
             transform="translate(14.1758,1159.3746)"><path
               d="M 0,0 C 0,-6.262 5.076,-11.338 11.338,-11.338"
               style="fill:none;stroke:#ed1c24;stroke-width:0.1;stroke-linecap:round;stroke-linejoin:round;stroke-miterlimit:10;stroke-dasharray:none;stroke-opacity:1"
               id="path873" /></g><g
             id="g875"
             transform="translate(25.5142,1403.1539)"><path
               d="M 0,0 C -6.262,0 -11.338,-5.077 -11.338,-11.339"
               style="fill:none;stroke:#ed1c24;stroke-width:0.1;stroke-linecap:round;stroke-linejoin:round;stroke-miterlimit:10;stroke-dasharray:none;stroke-opacity:1"
               id="path877" /></g><g
             id="g879"
             transform="translate(184.2539,1391.8151)"><path
               d="M 0,0 C 0,6.262 -5.076,11.339 -11.338,11.339"
               style="fill:none;stroke:#ed1c24;stroke-width:0.1;stroke-linecap:round;stroke-linejoin:round;stroke-miterlimit:10;stroke-dasharray:none;stroke-opacity:1"
               id="path881" /></g><g
             id="g883"
             transform="translate(172.9097,1403.1481)"><path
               d="M 0,0 H -147.398"
               style="fill:none;stroke:#ed1c24;stroke-width:0.1;stroke-linecap:round;stroke-linejoin:round;stroke-miterlimit:10;stroke-dasharray:none;stroke-opacity:1"
               id="path885" /></g><g
             id="g887"
             transform="translate(184.2495,1159.3702)"><path
               d="M 0,0 V 232.445"
               style="fill:none;stroke:#ed1c24;stroke-width:0.1;stroke-linecap:round;stroke-linejoin:round;stroke-miterlimit:10;stroke-dasharray:none;stroke-opacity:1"
               id="path889" /></g><g
             id="g891"
             transform="translate(25.5112,1148.0304)"><path
               d="M 0,0 H 147.398"
               style="fill:none;stroke:#ed1c24;stroke-width:0.1;stroke-linecap:round;stroke-linejoin:round;stroke-miterlimit:10;stroke-dasharray:none;stroke-opacity:1"
               id="path893" /></g><g
             id="g895"
             transform="translate(14.1714,1391.8151)"><path
               d="M 0,0 V -232.445"
               style="fill:none;stroke:#ed1c24;stroke-width:0.1;stroke-linecap:round;stroke-linejoin:round;stroke-miterlimit:10;stroke-dasharray:none;stroke-opacity:1"
               id="path897" /></g></g><g
           id="g1024"><g
             id="g899"
             transform="translate(403.9346,1264.962)"><path
               d="m 0,0 c -5.871,0 -10.63,4.759 -10.63,10.63 0,5.87 4.759,10.63 10.63,10.63 5.871,0 10.63,-4.76 10.63,-10.63 C 10.63,4.759 5.871,0 0,0 Z m -35.433,-17.716 h 42.52 c 15.59,0 28.346,12.756 28.346,28.346 0,15.591 -12.756,28.347 -28.346,28.347 h -42.52"
               style="fill:none;stroke:#ed1c24;stroke-width:0.1;stroke-linecap:butt;stroke-linejoin:miter;stroke-miterlimit:10;stroke-dasharray:none;stroke-opacity:1"
               id="path901" /></g><g
             id="g903"
             transform="translate(352.9155,1159.3746)"><path
               d="M 0,0 C 0,2.348 1.903,4.252 4.251,4.252 6.6,4.252 8.503,2.348 8.503,0 8.503,-2.348 6.6,-4.252 4.251,-4.252 1.903,-4.252 0,-2.348 0,0 Z"
               style="fill:none;stroke:#ed1c24;stroke-width:0.1;stroke-linecap:butt;stroke-linejoin:miter;stroke-miterlimit:10;stroke-dasharray:none;stroke-opacity:1"
               id="path905" /></g><g
             id="g907"
             transform="translate(352.9155,1391.8151)"><path
               d="M 0,0 C 0,2.348 1.903,4.252 4.251,4.252 6.6,4.252 8.503,2.348 8.503,0 8.503,-2.348 6.6,-4.252 4.251,-4.252 1.903,-4.252 0,-2.348 0,0 Z"
               style="fill:none;stroke:#ed1c24;stroke-width:0.1;stroke-linecap:butt;stroke-linejoin:miter;stroke-miterlimit:10;stroke-dasharray:none;stroke-opacity:1"
               id="path909" /></g><g
             id="g911"
             transform="translate(208.3486,1391.8151)"><path
               d="M 0,0 C 0,2.348 1.904,4.252 4.252,4.252 6.601,4.252 8.504,2.348 8.504,0 8.504,-2.348 6.601,-4.252 4.252,-4.252 1.904,-4.252 0,-2.348 0,0 Z"
               style="fill:none;stroke:#ed1c24;stroke-width:0.1;stroke-linecap:butt;stroke-linejoin:miter;stroke-miterlimit:10;stroke-dasharray:none;stroke-opacity:1"
               id="path913" /></g><g
             id="g915"
             transform="translate(208.3486,1159.3746)"><path
               d="M 0,0 C 0,2.348 1.904,4.252 4.252,4.252 6.601,4.252 8.504,2.348 8.504,0 8.504,-2.348 6.601,-4.252 4.252,-4.252 1.904,-4.252 0,-2.348 0,0 Z"
               style="fill:none;stroke:#ed1c24;stroke-width:0.1;stroke-linecap:butt;stroke-linejoin:miter;stroke-miterlimit:10;stroke-dasharray:none;stroke-opacity:1"
               id="path917" /></g><g
             id="g919"
             transform="translate(357.167,1148.0363)"><path
               d="M 0,0 C 6.263,0 11.339,5.076 11.339,11.338"
               style="fill:none;stroke:#ed1c24;stroke-width:0.1;stroke-linecap:round;stroke-linejoin:round;stroke-miterlimit:10;stroke-dasharray:none;stroke-opacity:1"
               id="path921" /></g><g
             id="g923"
             transform="translate(198.4277,1159.3746)"><path
               d="M 0,0 C 0,-6.262 5.076,-11.338 11.338,-11.338"
               style="fill:none;stroke:#ed1c24;stroke-width:0.1;stroke-linecap:round;stroke-linejoin:round;stroke-miterlimit:10;stroke-dasharray:none;stroke-opacity:1"
               id="path925" /></g><g
             id="g927"
             transform="translate(209.7661,1403.1539)"><path
               d="M 0,0 C -6.262,0 -11.338,-5.077 -11.338,-11.339"
               style="fill:none;stroke:#ed1c24;stroke-width:0.1;stroke-linecap:round;stroke-linejoin:round;stroke-miterlimit:10;stroke-dasharray:none;stroke-opacity:1"
               id="path929" /></g><g
             id="g931"
             transform="translate(368.5059,1391.8151)"><path
               d="M 0,0 C 0,6.262 -5.076,11.339 -11.339,11.339"
               style="fill:none;stroke:#ed1c24;stroke-width:0.1;stroke-linecap:round;stroke-linejoin:round;stroke-miterlimit:10;stroke-dasharray:none;stroke-opacity:1"
               id="path933" /></g><g
             id="g935"
             transform="translate(357.1611,1403.1481)"><path
               d="M 0,0 H -147.398"
               style="fill:none;stroke:#ed1c24;stroke-width:0.1;stroke-linecap:round;stroke-linejoin:round;stroke-miterlimit:10;stroke-dasharray:none;stroke-opacity:1"
               id="path937" /></g><g
             id="g939"
             transform="translate(368.502,1159.3702)"><path
               d="M 0,0 V 232.445"
               style="fill:none;stroke:#ed1c24;stroke-width:0.1;stroke-linecap:round;stroke-linejoin:round;stroke-miterlimit:10;stroke-dasharray:none;stroke-opacity:1"
               id="path941" /></g><g
             id="g943"
             transform="translate(209.7632,1148.0304)"><path
               d="M 0,0 H 147.398"
               style="fill:none;stroke:#ed1c24;stroke-width:0.1;stroke-linecap:round;stroke-linejoin:round;stroke-miterlimit:10;stroke-dasharray:none;stroke-opacity:1"
               id="path945" /></g><g
             id="g947"
             transform="translate(198.4233,1391.8151)"><path
               d="M 0,0 V -232.445"
               style="fill:none;stroke:#ed1c24;stroke-width:0.1;stroke-linecap:round;stroke-linejoin:round;stroke-miterlimit:10;stroke-dasharray:none;stroke-opacity:1"
               id="path949" /></g></g><g
           id="g1052"><g
             id="g951"
             transform="translate(651.9687,1259.6959)"><path
               d="m 0,0 c -5.871,0 -10.631,4.759 -10.631,10.63 0,5.871 4.76,10.63 10.631,10.63 5.87,0 10.63,-4.759 10.63,-10.63 C 10.63,4.759 5.87,0 0,0 Z m -35.434,-17.716 h 42.52 c 15.591,0 28.347,12.756 28.347,28.346 0,15.591 -12.756,28.347 -28.347,28.347 h -42.52"
               style="fill:none;stroke:#ed1c24;stroke-width:0.1;stroke-linecap:butt;stroke-linejoin:miter;stroke-miterlimit:10;stroke-dasharray:none;stroke-opacity:1"
               id="path953" /></g><g
             id="g955"
             transform="translate(600.9492,1154.1085)"><path
               d="M 0,0 C 0,2.349 1.903,4.252 4.252,4.252 6.601,4.252 8.504,2.349 8.504,0 8.504,-2.348 6.601,-4.252 4.252,-4.252 1.903,-4.252 0,-2.348 0,0 Z"
               style="fill:none;stroke:#ed1c24;stroke-width:0.1;stroke-linecap:butt;stroke-linejoin:miter;stroke-miterlimit:10;stroke-dasharray:none;stroke-opacity:1"
               id="path957" /></g><g
             id="g959"
             transform="translate(600.9492,1386.549)"><path
               d="M 0,0 C 0,2.349 1.903,4.252 4.252,4.252 6.601,4.252 8.504,2.349 8.504,0 8.504,-2.348 6.601,-4.252 4.252,-4.252 1.903,-4.252 0,-2.348 0,0 Z"
               style="fill:none;stroke:#ed1c24;stroke-width:0.1;stroke-linecap:butt;stroke-linejoin:miter;stroke-miterlimit:10;stroke-dasharray:none;stroke-opacity:1"
               id="path961" /></g><g
             id="g963"
             transform="translate(456.3828,1386.549)"><path
               d="M 0,0 C 0,2.349 1.903,4.252 4.252,4.252 6.6,4.252 8.504,2.349 8.504,0 8.504,-2.348 6.6,-4.252 4.252,-4.252 1.903,-4.252 0,-2.348 0,0 Z"
               style="fill:none;stroke:#ed1c24;stroke-width:0.1;stroke-linecap:butt;stroke-linejoin:miter;stroke-miterlimit:10;stroke-dasharray:none;stroke-opacity:1"
               id="path965" /></g><g
             id="g967"
             transform="translate(456.3828,1154.1085)"><path
               d="M 0,0 C 0,2.349 1.903,4.252 4.252,4.252 6.6,4.252 8.504,2.349 8.504,0 8.504,-2.348 6.6,-4.252 4.252,-4.252 1.903,-4.252 0,-2.348 0,0 Z"
               style="fill:none;stroke:#ed1c24;stroke-width:0.1;stroke-linecap:butt;stroke-linejoin:miter;stroke-miterlimit:10;stroke-dasharray:none;stroke-opacity:1"
               id="path969" /></g><g
             id="g971"
             transform="translate(605.2012,1142.7701)"><path
               d="M 0,0 C 6.262,0 11.339,5.076 11.339,11.338"
               style="fill:none;stroke:#ed1c24;stroke-width:0.1;stroke-linecap:round;stroke-linejoin:round;stroke-miterlimit:10;stroke-dasharray:none;stroke-opacity:1"
               id="path973" /></g><g
             id="g975"
             transform="translate(446.4609,1154.1085)"><path
               d="M 0,0 C 0,-6.262 5.077,-11.338 11.339,-11.338"
               style="fill:none;stroke:#ed1c24;stroke-width:0.1;stroke-linecap:round;stroke-linejoin:round;stroke-miterlimit:10;stroke-dasharray:none;stroke-opacity:1"
               id="path977" /></g><g
             id="g979"
             transform="translate(457.7998,1397.8878)"><path
               d="M 0,0 C -6.262,0 -11.339,-5.077 -11.339,-11.339"
               style="fill:none;stroke:#ed1c24;stroke-width:0.1;stroke-linecap:round;stroke-linejoin:round;stroke-miterlimit:10;stroke-dasharray:none;stroke-opacity:1"
               id="path981" /></g><g
             id="g983"
             transform="translate(616.54,1386.549)"><path
               d="M 0,0 C 0,6.262 -5.077,11.339 -11.339,11.339"
               style="fill:none;stroke:#ed1c24;stroke-width:0.1;stroke-linecap:round;stroke-linejoin:round;stroke-miterlimit:10;stroke-dasharray:none;stroke-opacity:1"
               id="path985" /></g><g
             id="g987"
             transform="translate(605.1953,1397.882)"><path
               d="M 0,0 H -147.398"
               style="fill:none;stroke:#ed1c24;stroke-width:0.1;stroke-linecap:round;stroke-linejoin:round;stroke-miterlimit:10;stroke-dasharray:none;stroke-opacity:1"
               id="path989" /></g><g
             id="g991"
             transform="translate(616.5352,1154.1041)"><path
               d="M 0,0 V 232.445"
               style="fill:none;stroke:#ed1c24;stroke-width:0.1;stroke-linecap:round;stroke-linejoin:round;stroke-miterlimit:10;stroke-dasharray:none;stroke-opacity:1"
               id="path993" /></g><g
             id="g995"
             transform="translate(457.7969,1142.7643)"><path
               d="M 0,0 H 147.398"
               style="fill:none;stroke:#ed1c24;stroke-width:0.1;stroke-linecap:round;stroke-linejoin:round;stroke-miterlimit:10;stroke-dasharray:none;stroke-opacity:1"
               id="path997" /></g><g
             id="g999"
             transform="translate(446.457,1386.549)"><path
               d="M 0,0 V -232.445"
               style="fill:none;stroke:#ed1c24;stroke-width:0.1;stroke-linecap:round;stroke-linejoin:round;stroke-miterlimit:10;stroke-dasharray:none;stroke-opacity:1"
               id="path1001" /></g></g></g></g></g></svg>
